<mxfile host="app.diagrams.net" agent="Mozilla/5.0 (Windows NT 10.0; Win64; x64) AppleWebKit/537.36 (KHTML, like Gecko) Chrome/132.0.0.0 Safari/537.36" version="26.0.13">
  <diagram name="Pagina-1" id="KF3mMEU2VkNs1QWPm8ZE">
    <mxGraphModel grid="1" page="1" gridSize="10" guides="1" tooltips="1" connect="1" arrows="1" fold="1" pageScale="1" pageWidth="827" pageHeight="1169" math="0" shadow="0">
      <root>
        <mxCell id="0" />
        <mxCell id="1" parent="0" />
        <mxCell id="0ioTHATd9AKernI3AEtk-1" value="" style="rounded=0;whiteSpace=wrap;html=1;" vertex="1" parent="1">
          <mxGeometry x="210" y="90" width="120" height="60" as="geometry" />
        </mxCell>
        <mxCell id="0ioTHATd9AKernI3AEtk-3" value="" style="rounded=0;whiteSpace=wrap;html=1;" vertex="1" parent="1">
          <mxGeometry x="390" y="90" width="120" height="60" as="geometry" />
        </mxCell>
        <mxCell id="0ioTHATd9AKernI3AEtk-4" value="Autonoleggio" style="text;html=1;align=center;verticalAlign=middle;whiteSpace=wrap;rounded=0;" vertex="1" parent="1">
          <mxGeometry x="240" y="105" width="60" height="30" as="geometry" />
        </mxCell>
        <mxCell id="0ioTHATd9AKernI3AEtk-8" value="Veicolo" style="text;html=1;align=center;verticalAlign=middle;whiteSpace=wrap;rounded=0;" vertex="1" parent="1">
          <mxGeometry x="414" y="105" width="60" height="30" as="geometry" />
        </mxCell>
        <mxCell id="0ioTHATd9AKernI3AEtk-11" value="Actor" style="shape=umlActor;verticalLabelPosition=bottom;verticalAlign=top;html=1;outlineConnect=0;" vertex="1" parent="1">
          <mxGeometry x="90" y="190" width="30" height="60" as="geometry" />
        </mxCell>
        <mxCell id="0ioTHATd9AKernI3AEtk-12" value="Cliente" style="text;html=1;align=center;verticalAlign=middle;whiteSpace=wrap;rounded=0;" vertex="1" parent="1">
          <mxGeometry x="75" y="260" width="60" height="30" as="geometry" />
        </mxCell>
        <mxCell id="0ioTHATd9AKernI3AEtk-13" value="" style="endArrow=classic;html=1;rounded=0;exitX=0.5;exitY=1;exitDx=0;exitDy=0;" edge="1" parent="1" source="0ioTHATd9AKernI3AEtk-1">
          <mxGeometry width="50" height="50" relative="1" as="geometry">
            <mxPoint x="250" y="210" as="sourcePoint" />
            <mxPoint x="270" y="230" as="targetPoint" />
          </mxGeometry>
        </mxCell>
        <mxCell id="0ioTHATd9AKernI3AEtk-15" value="CalcolaTotaleNoleggio()" style="text;html=1;align=center;verticalAlign=middle;whiteSpace=wrap;rounded=0;" vertex="1" parent="1">
          <mxGeometry x="240" y="240" width="60" height="30" as="geometry" />
        </mxCell>
        <mxCell id="0ioTHATd9AKernI3AEtk-17" value="CalcolaCostoNoleggio()" style="text;html=1;align=center;verticalAlign=middle;whiteSpace=wrap;rounded=0;" vertex="1" parent="1">
          <mxGeometry x="414" y="290" width="60" height="30" as="geometry" />
        </mxCell>
        <mxCell id="0ioTHATd9AKernI3AEtk-18" value="" style="endArrow=classic;html=1;rounded=0;exitX=0.5;exitY=1;exitDx=0;exitDy=0;" edge="1" parent="1" source="0ioTHATd9AKernI3AEtk-3">
          <mxGeometry width="50" height="50" relative="1" as="geometry">
            <mxPoint x="390" y="250" as="sourcePoint" />
            <mxPoint x="450" y="280" as="targetPoint" />
          </mxGeometry>
        </mxCell>
        <mxCell id="0ioTHATd9AKernI3AEtk-19" value="" style="endArrow=none;html=1;rounded=0;entryX=0.75;entryY=0;entryDx=0;entryDy=0;exitX=0.25;exitY=1;exitDx=0;exitDy=0;" edge="1" parent="1" source="0ioTHATd9AKernI3AEtk-20" target="0ioTHATd9AKernI3AEtk-3">
          <mxGeometry width="50" height="50" relative="1" as="geometry">
            <mxPoint x="510" y="60" as="sourcePoint" />
            <mxPoint x="440" y="200" as="targetPoint" />
          </mxGeometry>
        </mxCell>
        <mxCell id="0ioTHATd9AKernI3AEtk-23" value="Text" style="edgeLabel;html=1;align=center;verticalAlign=middle;resizable=0;points=[];" connectable="0" vertex="1" parent="0ioTHATd9AKernI3AEtk-19">
          <mxGeometry x="-0.2333" y="-4" relative="1" as="geometry">
            <mxPoint x="42" y="-36" as="offset" />
          </mxGeometry>
        </mxCell>
        <mxCell id="0ioTHATd9AKernI3AEtk-20" value="" style="rounded=1;whiteSpace=wrap;html=1;" vertex="1" parent="1">
          <mxGeometry x="510" width="80" height="40" as="geometry" />
        </mxCell>
        <mxCell id="0ioTHATd9AKernI3AEtk-21" value="" style="endArrow=none;html=1;rounded=0;entryX=0.25;entryY=0;entryDx=0;entryDy=0;exitX=0.5;exitY=1;exitDx=0;exitDy=0;" edge="1" parent="1" source="0ioTHATd9AKernI3AEtk-22" target="0ioTHATd9AKernI3AEtk-3">
          <mxGeometry width="50" height="50" relative="1" as="geometry">
            <mxPoint x="200" y="40" as="sourcePoint" />
            <mxPoint x="440" y="80" as="targetPoint" />
            <Array as="points">
              <mxPoint x="410" y="60" />
            </Array>
          </mxGeometry>
        </mxCell>
        <mxCell id="0ioTHATd9AKernI3AEtk-22" value="" style="rounded=1;whiteSpace=wrap;html=1;" vertex="1" parent="1">
          <mxGeometry x="360" width="80" height="40" as="geometry" />
        </mxCell>
        <mxCell id="0ioTHATd9AKernI3AEtk-24" value="Furgoni" style="text;html=1;align=center;verticalAlign=middle;whiteSpace=wrap;rounded=0;" vertex="1" parent="1">
          <mxGeometry x="370" y="5" width="60" height="30" as="geometry" />
        </mxCell>
        <mxCell id="0ioTHATd9AKernI3AEtk-25" value="Vetture" style="text;html=1;align=center;verticalAlign=middle;whiteSpace=wrap;rounded=0;" vertex="1" parent="1">
          <mxGeometry x="520" y="5" width="60" height="30" as="geometry" />
        </mxCell>
      </root>
    </mxGraphModel>
  </diagram>
</mxfile>
